<?xml version="1.0" encoding="UTF-8" standalone="no"?>
<!-- Created with Inkscape (http://www.inkscape.org/) -->

<svg
   xmlns:osb="http://www.openswatchbook.org/uri/2009/osb"
   xmlns:dc="http://purl.org/dc/elements/1.1/"
   xmlns:cc="http://creativecommons.org/ns#"
   xmlns:rdf="http://www.w3.org/1999/02/22-rdf-syntax-ns#"
   xmlns:svg="http://www.w3.org/2000/svg"
   xmlns="http://www.w3.org/2000/svg"
   xmlns:xlink="http://www.w3.org/1999/xlink"
   xmlns:sodipodi="http://sodipodi.sourceforge.net/DTD/sodipodi-0.dtd"
   xmlns:inkscape="http://www.inkscape.org/namespaces/inkscape"
   width="900mm"
   height="600mm"
   viewBox="0 0 3188.9764 2125.9842"
   id="svg2"
   version="1.1"
   inkscape:version="0.91 r13725"
   sodipodi:docname="practica1.svg">
  <sodipodi:namedview
     id="base"
     pagecolor="#ffffff"
     bordercolor="#666666"
     borderopacity="1.0"
     inkscape:pageopacity="0.0"
     inkscape:pageshadow="2"
     inkscape:zoom="0.98994949"
     inkscape:cx="1465.11"
     inkscape:cy="1341.6412"
     inkscape:document-units="px"
     inkscape:current-layer="layer1"
     showgrid="false"
     inkscape:snap-object-midpoints="false"
     inkscape:snap-center="false"
     inkscape:snap-others="true"
     inkscape:object-paths="false"
     inkscape:window-width="1366"
     inkscape:window-height="705"
     inkscape:window-x="-8"
     inkscape:window-y="-8"
     inkscape:window-maximized="1" />
  <defs
     id="defs4">
    <inkscape:path-effect
       effect="bend_path"
       id="path-effect3491"
       is_visible="true"
       bendpath="m 767.79639,348.38029 570.09071,0"
       prop_scale="1"
       scale_y_rel="false"
       vertical="false" />
    <inkscape:path-effect
       effect="bend_path"
       id="path-effect3455"
       is_visible="true"
       bendpath="m 767.79639,348.38029 570.09071,0"
       prop_scale="1"
       scale_y_rel="false"
       vertical="false" />
    <inkscape:path-effect
       effect="bend_path"
       id="path-effect3435"
       is_visible="true"
       bendpath="m 828.32507,338.10565 450.00003,0"
       prop_scale="1"
       scale_y_rel="false"
       vertical="false" />
    <inkscape:path-effect
       effect="bend_path"
       id="path-effect3382"
       is_visible="true"
       bendpath="m 767.79639,348.38029 570.09071,0"
       prop_scale="1"
       scale_y_rel="false"
       vertical="false" />
    <inkscape:path-effect
       effect="bend_path"
       id="path-effect4273"
       is_visible="true"
       bendpath="m 828.32507,338.10565 450.00003,0"
       prop_scale="1"
       scale_y_rel="false"
       vertical="false" />
    <inkscape:path-effect
       effect="bend_path"
       id="path-effect4213"
       is_visible="true"
       bendpath="m 767.79639,348.38029 570.09071,0"
       prop_scale="1"
       scale_y_rel="false"
       vertical="false" />
    <inkscape:path-effect
       effect="bend_path"
       id="path-effect4198"
       is_visible="true"
       bendpath="m 767.79639,348.38029 c 213.6764,-97.33142 398.17411,-85.91605 570.09071,0"
       prop_scale="1"
       scale_y_rel="false"
       vertical="false"
       bendpath-nodetypes="cc" />
    <inkscape:path-effect
       bendpath-nodetypes="cc"
       vertical="false"
       scale_y_rel="false"
       prop_scale="1"
       bendpath="m 1478.9629,707.70215 c 39.5896,-16.84666 82.7918,-17.43696 130,0"
       is_visible="true"
       id="path-effect4197"
       effect="bend_path" />
    <linearGradient
       osb:paint="solid"
       id="linearGradient8112">
      <stop
         id="stop8114"
         offset="0"
         style="stop-color:#cccccc;stop-opacity:1;" />
    </linearGradient>
    <linearGradient
       osb:paint="solid"
       id="linearGradient8104">
      <stop
         id="stop8106"
         offset="0"
         style="stop-color:#374548;stop-opacity:1;" />
    </linearGradient>
    <linearGradient
       gradientUnits="userSpaceOnUse"
       y2="-762.38446"
       x2="802.60719"
       y1="-762.38446"
       x1="291.83282"
       id="linearGradient8108"
       xlink:href="#linearGradient8104"
       inkscape:collect="always" />
    <linearGradient
       gradientTransform="matrix(1.5709174,0,0,1.4817874,-914.46388,117.25495)"
       gradientUnits="userSpaceOnUse"
       y2="-302.63788"
       x2="1660.5"
       y1="-302.63788"
       x1="1469.5"
       id="linearGradient8116"
       xlink:href="#linearGradient8112"
       inkscape:collect="always" />
    <linearGradient
       gradientTransform="matrix(1.4069117,0,0,1.3270867,-659.3074,74.411703)"
       gradientUnits="userSpaceOnUse"
       y2="-302.63788"
       x2="1660.5"
       y1="-302.63788"
       x1="1469.5"
       id="linearGradient8116-7"
       xlink:href="#linearGradient8112"
       inkscape:collect="always" />
  </defs>
  <metadata
     id="metadata7">
    <rdf:RDF>
      <cc:Work
         rdf:about="">
        <dc:format>image/svg+xml</dc:format>
        <dc:type
           rdf:resource="http://purl.org/dc/dcmitype/StillImage" />
        <dc:title />
      </cc:Work>
    </rdf:RDF>
  </metadata>
  <g
     transform="translate(0,1073.622)"
     id="layer1"
     inkscape:groupmode="layer"
     inkscape:label="Capa 1">
    <ellipse
       r="100"
       cy="-327.21494"
       cx="1542.5093"
       id="path8110-2"
       style="opacity:1;fill:#e1f903;fill-opacity:0.94117647;stroke:none;stroke-width:3;stroke-miterlimit:4;stroke-dasharray:none;stroke-opacity:0.94117647" />
    <g
       id="g4199">
      <path
         sodipodi:type="star"
         style="fill:#2ca089;fill-opacity:0.94117647"
         id="path7270-3"
         sodipodi:sides="13"
         sodipodi:cx="548.57141"
         sodipodi:cy="-764.7807"
         sodipodi:r1="226.60625"
         sodipodi:r2="257.50711"
         sodipodi:arg1="-0.10768987"
         sodipodi:arg2="0.1643832"
         inkscape:flatsided="false"
         inkscape:rounded="0"
         inkscape:randomized="0"
         d="m 773.86494,-789.13676 28.74225,66.49552 -43.22944,40.99344 -5.45201,72.23605 -57.32838,16.20817 -38.39727,61.42817 -58.29407,-12.2902 -62.5462,36.54783 -45.90529,-37.97304 -72.36653,3.29484 -23.00016,-54.95671 -65.60857,-30.71297 5.17402,-59.35046 -43.82047,-57.6848 32.1629,-50.14774 -11.99364,-71.44175 51.78365,-29.45676 22.5808,-68.83225 59.54139,-2.01761 51.98224,-50.45407 53.65891,25.88372 69.47519,-20.51752 35.48382,47.85544 71.0522,14.11935 9.17982,58.86407 56.35201,45.52167 z"
         inkscape:transform-center-x="-4.1123458"
         inkscape:transform-center-y="-4.7464927"
         transform="matrix(0.75474546,0.20891023,-0.20933688,0.75628686,972.24576,129.05816)" />
      <path
         sodipodi:type="star"
         style="opacity:1;fill:url(#linearGradient8108);fill-opacity:1"
         id="path7270"
         sodipodi:sides="13"
         sodipodi:cx="548.57141"
         sodipodi:cy="-764.7807"
         sodipodi:r1="226.60625"
         sodipodi:r2="257.50711"
         sodipodi:arg1="-0.10768987"
         sodipodi:arg2="0.1643832"
         inkscape:flatsided="false"
         inkscape:rounded="0"
         inkscape:randomized="0"
         d="m 773.86494,-789.13676 28.74225,66.49552 -43.22944,40.99344 -5.45201,72.23605 -57.32838,16.20817 -38.39727,61.42817 -58.29407,-12.2902 -62.5462,36.54783 -45.90529,-37.97304 -72.36653,3.29484 -23.00016,-54.95671 -65.60857,-30.71297 5.17402,-59.35046 -43.82047,-57.6848 32.1629,-50.14774 -11.99364,-71.44175 51.78365,-29.45676 22.5808,-68.83225 59.54139,-2.01761 51.98224,-50.45407 53.65891,25.88372 69.47519,-20.51752 35.48382,47.85544 71.0522,14.11935 9.17982,58.86407 56.35201,45.52167 z"
         inkscape:transform-center-x="0.69982238"
         inkscape:transform-center-y="-3.2473209"
         transform="matrix(0.78224167,0.03717763,-0.03725355,0.78383921,1086.4156,247.8805)" />
      <circle
         style="opacity:1;fill:none;fill-opacity:0.94117647;stroke:url(#linearGradient8116);stroke-width:3;stroke-opacity:0.94117647;stroke-miterlimit:4;stroke-dasharray:none"
         id="path8110"
         cx="1544.0219"
         cy="-331.19"
         r="149.23715" />
      <circle
         style="opacity:1;fill:none;fill-opacity:0.94117647;stroke:url(#linearGradient8116-7);stroke-width:2;stroke-linecap:butt;stroke-miterlimit:4;stroke-dasharray:2, 12;stroke-dashoffset:0;stroke-opacity:0.94117647"
         id="path8110-5"
         cx="1542.5093"
         cy="-327.21494"
         r="133.6566" />
      <path
         style="opacity:1;fill:#374548;fill-opacity:1;stroke:none;stroke-width:1.48525953;stroke-linecap:butt;stroke-miterlimit:4;stroke-dasharray:1.48525957, 8.91155739000000050;stroke-dashoffset:0;stroke-opacity:0.94117647"
         d="m 1641.7666,-327.21494 a 99.25737,99.25737 0 0 1 -99.2573,99.25737 99.25737,99.25737 0 0 1 -99.2574,-99.25737 99.25737,99.25737 0 0 1 99.2574,-99.25737 99.25737,99.25737 0 0 1 99.2573,99.25737 z"
         id="path8110-5-4"
         inkscape:connector-curvature="0" />
      <text
         xml:space="preserve"
         style="font-style:normal;font-variant:normal;font-weight:normal;font-stretch:semi-condensed;font-size:40px;line-height:125%;font-family:'Lucida Console';-inkscape-font-specification:'Lucida Console Semi-Condensed';letter-spacing:0px;word-spacing:0px;fill:#899ca2;fill-opacity:1;stroke:none;stroke-width:1px;stroke-linecap:butt;stroke-linejoin:miter;stroke-opacity:1"
         id="text3373"
         sodipodi:linespacing="125%"
         transform="matrix(-0.94024923,-0.34048699,0.34048699,-0.94024923,3108.946,-101.66008)"><textPath
           xlink:href="#path8110-5-4"
           id="textPath3379"><tspan
   id="tspan3375"><tspan
     id="tspan3377"
     style="font-style:normal;font-variant:normal;font-weight:normal;font-stretch:normal;font-family:Carlito;-inkscape-font-specification:Carlito;fill:#899ca2;fill-opacity:1"
     y="-426.9176"
     x="1431.4288">WELCOME  TO</tspan></tspan></textPath></text>
      <path
         style="opacity:1;fill:#53676c;fill-opacity:1;stroke:none;stroke-width:2;stroke-linecap:butt;stroke-miterlimit:4;stroke-dasharray:2, 12;stroke-dashoffset:0;stroke-opacity:0.94117647"
         d="m 1541.8079,673.37024 c -0.2586,0.38085 -0.5157,0.76226 -0.7713,1.14424 -2.6939,4.0232 -5.2,8.10625 -7.5196,12.23699 -5.4419,1.34933 -10.759,2.96584 -15.932,4.8277 4.2767,3.19152 8.3169,6.54767 12.1051,10.04568 -0.03,5.07419 -0.016,10.14675 0.041,15.21717 3.6478,-2.19185 7.4606,-4.23627 11.4293,-6.11066 0.4034,-0.19158 0.8085,-0.38134 1.2153,-0.56928 4.4703,2.05564 8.7645,4.32017 12.8943,6.7612 -0.082,-5.08063 -0.218,-10.16304 -0.4091,-15.24662 3.6762,-3.49736 7.5763,-6.87243 11.675,-10.11887 -5.2019,-1.81931 -10.5307,-3.42244 -15.9865,-4.77889 -2.6852,-4.53096 -5.5944,-9.00474 -8.7412,-13.40866 z m -51.1909,20.92934 c -0.7661,3.46447 -1.4321,6.92646 -1.9983,10.38133 -2.9155,1.8288 -5.7515,3.74102 -8.5029,5.73048 3.1602,1.53064 6.2334,3.15328 9.2155,4.86123 0.9857,3.40232 1.9895,6.79864 3.0114,10.18881 2.0379,-2.31042 4.1833,-4.57652 6.4332,-6.78966 3.1516,0.50466 6.248,1.11514 9.2814,1.82575 -1.2035,-3.33807 -2.4326,-6.66838 -3.6872,-9.99064 1.378,-3.09439 2.8746,-6.17365 4.49,-9.23042 -3.418,-0.0311 -6.8605,0.0508 -10.3196,0.24803 -2.5518,-2.46604 -5.1938,-4.87589 -7.9235,-7.22491 z m 105.9603,0.30992 c -2.5546,2.45193 -5.0476,4.94348 -7.4745,7.47296 -3.4455,-0.14418 -6.876,-0.20177 -10.284,-0.16929 1.7054,3.07774 3.3119,6.1775 4.8251,9.29324 -1.1337,3.35939 -2.2531,6.72279 -3.3582,10.09011 3.0839,-0.70779 6.2258,-1.33754 9.4164,-1.89009 2.419,2.20862 4.7672,4.46106 7.0483,6.74829 0.7956,-3.46206 1.5735,-6.92964 2.3335,-10.40259 2.8924,-1.82554 5.8501,-3.59499 8.8656,-5.30635 -2.8887,-1.86406 -5.833,-3.67455 -8.8332,-5.42309 -0.769,-3.46949 -1.6139,-6.94176 -2.539,-10.41319 z"
         transform="translate(0,-1073.622)"
         id="path4187"
         inkscape:path-effect="#path-effect4197"
         inkscape:original-d="M 1541.9258 686.22461 L 1534.2539 699.40625 L 1518.9629 702.64258 L 1529.625 714.00781 L 1528.3086 729.17969 L 1542.5703 723.02148 L 1557.0488 729.16406 L 1555.2012 713.99219 L 1565.4629 702.61523 L 1550.0605 699.39648 L 1541.9258 686.22461 z M 1493.7773 699.17969 L 1488.8281 708.38672 L 1478.9629 710.64648 L 1485.8418 718.58398 L 1484.9922 729.17969 L 1494.1934 724.87891 L 1503.5332 729.16797 L 1502.3418 718.57422 L 1508.9629 710.62695 L 1499.0254 708.37891 L 1493.7773 699.17969 z M 1593.7773 699.17969 L 1588.8281 708.38672 L 1578.9629 710.64648 L 1585.8418 718.58398 L 1584.9922 729.17969 L 1594.1934 724.87891 L 1603.5332 729.16797 L 1602.3418 718.57422 L 1608.9629 710.62695 L 1599.0254 708.37891 L 1593.7773 699.17969 z " />
    </g>
    <flowRoot
       xml:space="preserve"
       id="flowRoot5037"
       style="fill:black;stroke:none;stroke-opacity:1;stroke-width:1px;stroke-linejoin:miter;stroke-linecap:butt;fill-opacity:1;font-family:sans-serif;font-style:normal;font-weight:normal;font-size:40px;line-height:125%;letter-spacing:0px;word-spacing:0px"><flowRegion
         id="flowRegion5039"><rect
           id="rect5041"
           width="230.71428"
           height="68.571426"
           x="746.42859"
           y="1554.5555" /></flowRegion><flowPara
         id="flowPara5043" /></flowRoot>    <g
       id="g4185"
       inkscape:path-effect="#path-effect4198"
       transform="translate(488.57143,-557.14286)">
      <g
         id="g4215">
        <g
           inkscape:path-effect="#path-effect4213"
           id="g4200">
          <g
             id="g3473"
             inkscape:path-effect="#path-effect3491">
            <path
               style="opacity:1;fill:#37c8ab;fill-opacity:1;stroke:#374548;stroke-width:0.94265866;stroke-linecap:butt;stroke-miterlimit:4;stroke-dasharray:none;stroke-dashoffset:0;stroke-opacity:1"
               d="m 1359.4713,305.19068 c -32.5824,-16.31443 -66.4901,-30.46195 -101.5064,-41.88903 l -36.0138,110.29888 c 29.1018,9.51064 57.7201,21.49688 85.6382,35.40519 -2.6266,-22.91877 -6.309,-46.00992 -11.186,-69.17713 20.1856,-12.36949 41.264,-23.92327 63.068,-34.63791 z"
               id="rect4213-8"
               inkscape:original-d="m 1337.8871,300.09759 -99.0574,0 0,116.05733 99.0574,0 -40.0001,-58.0286 z"
               inkscape:connector-curvature="0" />
            <path
               style="opacity:1;fill:#374548;fill-opacity:0.94117647;stroke:none;stroke-width:2;stroke-linecap:butt;stroke-miterlimit:4;stroke-dasharray:none;stroke-dashoffset:0;stroke-opacity:1"
               d="m 1261.4254,262.33398 c 0,0 6.4327,2.38443 12.8151,4.89281 6.7959,2.67092 12.308,4.96941 12.7654,5.16061 0,0 5.8505,2.50321 11.6541,5.1082 6.1519,2.76129 11.219,5.1486 11.607,5.33263 0,0 -6.1891,-2.28172 -12.4344,-4.45716 -6.7599,-2.3547 -12.0257,-4.07091 -12.5928,-4.25771 -8.9044,-3.01572 -17.8743,-5.85871 -26.9053,-8.52001 -0.054,-0.73152 -0.1089,-1.46314 -0.1646,-2.19486 0,0 3.2035,-1.04765 3.2555,-1.06451 z m -1.3761,4.15367 c 0,0 6.3924,2.37144 12.7351,4.86619 6.9243,2.7235 12.0609,4.87517 12.6844,5.13137 0,0 5.815,2.49035 11.5836,5.08187 6.2662,2.81503 10.9999,5.05379 11.5355,5.30379 0,0 -6.1542,-2.26742 -12.363,-4.42869 -6.6781,-2.32463 -11.9967,-4.05867 -12.5162,-4.2288 -8.8504,-2.99594 -17.7649,-5.81975 -26.7388,-8.46249 0,0 -0.157,-2.16053 -0.1595,-2.19321 0,0 3.1891,-1.05369 3.2389,-1.07003 z m -1.3762,4.15376 c 0,0 6.3521,2.35824 12.6552,4.83923 6.835,2.69037 12.0316,4.8664 12.6034,5.10238 0,0 5.7795,2.47726 11.5132,5.0552 6.1737,2.77579 10.9877,5.05168 11.4639,5.27519 0,0 -6.1193,-2.25309 -12.2916,-4.40016 -6.5778,-2.28813 -11.9861,-4.05274 -12.4396,-4.19976 -8.7965,-2.97619 -17.6554,-5.78086 -26.5723,-8.40506 0,0 -0.1522,-2.16012 -0.1545,-2.19156 0,0 3.1746,-1.05968 3.2223,-1.07546 z m -1.3762,4.15377 c 0,0 6.3119,2.345 12.5753,4.81222 6.7217,2.64774 12.0263,4.8671 12.5224,5.07343 0,0 5.7439,2.4642 11.4427,5.02857 6.0888,2.73993 10.9679,5.04626 11.3924,5.24665 0,0 -6.0845,-2.23881 -12.2202,-4.37173 -6.505,-2.26127 -11.9481,-4.03737 -12.363,-4.17091 -8.7425,-2.95637 -17.546,-5.74184 -26.4058,-8.34743 0,0 -0.1473,-2.15978 -0.1494,-2.18991 0,0 3.1595,-1.06404 3.2051,-1.07928 z m -1.3761,4.15377 c 0,0 6.2715,2.33177 12.4953,4.78524 6.6426,2.61856 11.9867,4.85435 12.4413,5.04445 0,0 5.7085,2.45112 11.3723,5.00192 6.032,2.71667 10.9201,5.02819 11.3209,5.21803 0,-0.007 -6.0501,-2.2244 -12.1489,-4.34287 -6.6349,-2.30472 -11.7072,-3.9514 -12.2863,-4.14229 -8.6886,-2.93663 -17.4365,-5.70295 -26.2393,-8.29001 0,0 -0.1422,-2.15938 -0.1443,-2.18825 0,0 3.145,-1.07013 3.1885,-1.0848 z m -1.3762,4.15376 c 0,0 6.2312,2.31855 12.4154,4.75825 6.5671,2.59079 11.9435,4.84018 12.3603,5.01549 0,0 5.673,2.43806 11.3018,4.9753 5.9539,2.68375 10.8936,5.01981 11.2493,5.18948 0,0 -6.0146,-2.20997 -12.0773,-4.31442 -6.5395,-2.26992 -11.6919,-3.94383 -12.2098,-4.11336 -8.6347,-2.91685 -17.3271,-5.664 -26.0728,-8.23249 0,0 -0.1373,-2.16077 -0.1387,-2.18812 1.0553,-0.36587 2.1126,-0.72925 3.1718,-1.09013 z m -1.3757,4.15225 c 0,0 6.1909,2.30569 12.3352,4.73198 6.4939,2.56433 11.8977,4.82577 12.2791,4.98722 0,0 5.6374,2.4252 11.2312,4.94898 6.1176,2.7601 10.6251,4.90242 11.1779,5.16073 0,0 -5.9797,-2.19566 -12.0059,-4.28594 -6.4803,-2.24781 -11.6401,-3.92367 -12.1332,-4.08456 -8.5805,-2.89753 -17.2173,-5.62598 -25.9058,-8.17639 0,0 -0.1324,-2.15874 -0.1342,-2.18495 1.0498,-0.36767 2.1015,-0.73286 3.1552,-1.09555 z m -1.3761,4.15376 c 0,0 6.1504,2.29268 12.255,4.70531 6.6861,2.64239 11.5868,4.70598 12.1983,4.95794 0,0 5.602,2.41174 11.1609,4.92158 6.0016,2.70968 10.6369,4.91044 11.1068,5.13148 0,0 -5.945,-2.18098 -11.9348,-4.25671 -6.3936,-2.21569 -11.6162,-3.91235 -12.0569,-4.05493 -8.5266,-2.87775 -17.1079,-5.58703 -25.7394,-8.11886 0,0 -0.128,-2.15862 -0.129,-2.1833 0,0 3.1013,-1.08811 3.1386,-1.10108 z m -1.3762,4.15368 c 0,0 6.1102,2.27908 12.1753,4.67759 6.5774,2.60109 11.5772,4.7043 12.1176,4.92829 0,0 5.5665,2.39867 11.0905,4.89494 5.9002,2.66629 10.6336,4.91256 11.0353,5.10297 0,0 -5.9099,-2.16704 -11.8629,-4.22898 -6.2898,-2.17854 -11.6089,-3.90833 -11.9803,-4.0268 -8.4726,-2.85802 -16.9985,-5.54816 -25.5729,-8.06148 0,0 -0.1227,-2.1581 -0.124,-2.18164 0,0 3.0872,-1.09552 3.1225,-1.10803 z m -1.3761,4.15376 c 0,0 6.0698,2.26585 12.0952,4.65059 6.4781,2.56387 11.5578,4.69957 12.0367,4.89934 0,0 5.5308,2.38593 11.0196,4.86899 5.789,2.61884 10.6396,4.91976 10.9636,5.07522 0,0 -5.875,-2.15249 -11.7916,-4.20013 -6.5275,-2.2591 -11.2601,-3.78522 -11.9036,-3.99825 -8.4188,-2.83772 -16.8893,-5.50818 -25.4069,-8.00241 0,0 -0.1172,-2.15757 -0.1188,-2.17999 0,0 3.0724,-1.10156 3.1058,-1.11336 z m -1.3762,4.15377 c 0,0 6.0295,2.25258 12.0152,4.62352 6.3849,2.52904 11.5323,4.6924 11.9558,4.87036 0,0 5.4952,2.37304 10.9489,4.84264 6.0124,2.72251 10.3114,4.77502 10.8922,5.04649 0,0 -5.84,-2.13818 -11.72,-4.17166 -6.3966,-2.21217 -11.2799,-3.78988 -11.8271,-3.96943 -8.3649,-2.81792 -16.7799,-5.46917 -25.2404,-7.9448 0,0 -0.1128,-2.15744 -0.1138,-2.17824 0,0 3.0579,-1.10766 3.0892,-1.11888 z m -1.3761,4.15367 c 0,0 5.989,2.23935 11.9351,4.59654 6.2985,2.4969 11.4998,4.68264 11.8749,4.84148 0,0 5.4596,2.35996 10.8784,4.81597 5.8641,2.65787 10.3548,4.79836 10.8207,5.01799 0,0 -5.805,-2.12384 -11.6484,-4.14311 -6.2449,-2.15803 -11.3207,-3.80163 -11.7507,-3.94051 -8.311,-2.79817 -16.6704,-5.43027 -25.0739,-7.88736 0,0 -0.1073,-2.15701 -0.1087,-2.17669 0,0 3.0433,-1.11358 3.0726,-1.12431 z m -1.3762,4.15376 c 0,0 5.9486,2.2263 11.8549,4.5698 6.6297,2.63052 11.0499,4.50725 11.7942,4.81227 0,0 5.424,2.34685 10.8078,4.78927 5.7903,2.62686 10.3239,4.78801 10.7493,4.98942 0,0 -5.77,-2.10947 -11.5768,-4.11453 -6.1506,-2.12375 -11.3042,-3.79349 -11.6743,-3.91162 -8.257,-2.77838 -16.561,-5.39131 -24.9074,-7.82983 0,0 -0.1029,-2.15688 -0.1036,-2.17504 1.0166,-0.37904 2.0352,-0.75561 3.0559,-1.12974 z m -1.3762,4.15377 c 0,0 5.9082,2.21301 11.7749,4.54273 6.3847,2.53545 11.176,4.56033 11.7133,4.78338 0,0 5.3883,2.33375 10.7371,4.76258 5.6774,2.57805 10.3321,4.79548 10.678,4.96094 0,0 -5.7351,-2.09513 -11.5053,-4.086 -6.0885,-2.10071 -11.2551,-3.77424 -11.5978,-3.88286 -8.2031,-2.75857 -16.4515,-5.3523 -24.7409,-7.77222 0,0 -0.098,-2.15625 -0.099,-2.17338 1.011,-0.38085 2.0241,-0.75923 3.0392,-1.13517 z m -1.3761,4.15377 c 0,0 5.8678,2.19975 11.6947,4.51569 6.2603,2.48816 11.1817,4.56565 11.6325,4.75446 0,0 5.3527,2.32063 10.6665,4.73588 5.5812,2.53683 10.3235,4.79538 10.6066,4.93247 0,0 -5.7002,-2.08059 -11.4338,-4.05718 -6.4442,-2.22153 -10.7885,-3.61087 -11.5213,-3.85431 -8.1491,-2.73882 -16.3421,-5.3134 -24.5744,-7.71479 0,0 -0.093,-2.15612 -0.093,-2.17172 0,0 2.9991,-1.13169 3.0226,-1.1405 z m -1.3762,4.15376 c 0,0 5.8273,2.18652 11.6146,4.48868 6.1944,2.46416 11.1288,4.54772 11.5516,4.72552 0,0 5.3171,2.30769 10.5958,4.70942 6.0162,2.73726 9.7838,4.55374 10.5354,4.90366 0,0 -5.6651,-2.0662 -11.3622,-4.02857 -6.2448,-2.15106 -10.8768,-3.6389 -11.4449,-3.82544 -8.0952,-2.71904 -16.2326,-5.27445 -24.4079,-7.65726 0,0 -0.088,-2.15559 -0.088,-2.17008 0,0 2.9843,-1.13785 3.006,-1.14593 z m -1.3762,4.15377 c 0,0 5.7869,2.17323 11.5345,4.46158 6.0832,2.42199 11.1213,4.54783 11.4709,4.69656 0,0 5.2814,2.2946 10.5251,4.68277 5.7411,2.61472 9.9539,4.63499 10.464,4.87524 0,0 -5.6301,-2.05186 -11.2906,-4.00006 -6.0854,-2.09448 -10.9251,-3.65319 -11.3685,-3.79667 -8.0412,-2.69919 -16.1232,-5.23536 -24.2415,-7.59955 0,0 -0.083,-2.15555 -0.083,-2.16852 0,0 2.9691,-1.14228 2.9888,-1.14983 z m -1.3762,4.15376 c 0,0 5.7465,2.15996 11.4543,4.43454 5.9566,2.3737 11.1292,4.55419 11.3901,4.66775 0,0 5.2458,2.28147 10.4544,4.65603 5.6395,2.57099 9.9508,4.63734 10.3927,4.84671 0,0 -5.595,-2.0375 -11.2188,-3.97148 -5.9175,-2.03497 -10.9821,-3.67031 -11.2923,-3.76777 -7.9872,-2.67948 -16.0137,-5.19654 -24.0749,-7.54222 -0.025,-0.72266 -0.051,-1.44542 -0.078,-2.16829 0,0 2.9542,-1.14837 2.9721,-1.15527 z m -1.3761,4.15377 c 0,0 5.7059,2.14689 11.3739,4.40778 6.7817,2.70509 10.1851,4.18101 11.3095,4.63855 0,0 5.2101,2.26833 10.3837,4.62929 5.4291,2.47751 10.0566,4.68945 10.3214,4.81827 0,0 -5.56,-2.02309 -11.1472,-3.94285 -5.849,-2.00973 -10.9394,-3.65315 -11.2159,-3.73902 -7.9333,-2.65969 -15.9042,-5.15758 -23.9084,-7.48469 0,0 -0.072,-2.15586 -0.073,-2.16664 0,0 2.9395,-1.15452 2.9556,-1.16069 z m -1.3757,4.15215 c 0,0 5.6654,2.134 11.2936,4.38148 6.3419,2.53249 10.5056,4.31274 11.2284,4.61041 0,0 5.1745,2.25523 10.313,4.60261 5.3272,2.43354 10.0536,4.69214 10.2501,4.78988 0,0 -5.525,-2.00856 -11.0756,-3.91405 -6.9444,-2.38396 -9.7331,-3.23642 -11.1395,-3.71053 -7.8791,-2.64039 -15.7944,-5.11957 -23.7414,-7.4286 0,0 -0.068,-2.15432 -0.068,-2.16347 0.9775,-0.39112 1.9571,-0.77983 2.9389,-1.16611 z m -1.3761,4.15377 c 0,0 5.6248,2.12071 11.2133,4.3544 6.0638,2.42369 10.6649,4.37955 11.1477,4.58153 0,0 5.1388,2.24191 10.2425,4.57541 6.3995,2.92604 8.8766,4.15736 10.1792,4.76043 0,0 -5.4901,-1.99382 -11.0043,-3.88473 -6.2179,-2.13226 -10.3488,-3.44463 -11.0634,-3.681 -7.8252,-2.6206 -15.685,-5.08061 -23.5749,-7.37107 0,0 -0.062,-2.15364 -0.063,-2.16181 0,0 2.91,-1.16808 2.9228,-1.17316 z m -1.3762,4.15376 c 7.4521,2.81113 14.8531,5.77358 22.2006,8.87848 0,0 5.1032,2.22877 10.1718,4.54868 5.5558,2.54294 9.6156,4.49911 10.108,4.73201 -7.2775,-2.64081 -14.5852,-5.14655 -21.9192,-7.50987 -7.7712,-2.60086 -15.5756,-5.04175 -23.4085,-7.31368 0,0 -0.058,-2.15391 -0.058,-2.16016 0,0 2.8958,-1.17448 2.9061,-1.17859 z m -1.3762,4.15377 c 7.397,2.79305 14.7444,5.73685 22.0397,8.82252 6.761,2.95616 13.474,6.03421 20.1372,9.2269 -7.2295,-2.62111 -14.4879,-5.10768 -21.7711,-7.45237 -7.7175,-2.58058 -15.4665,-5.00177 -23.2425,-7.25462 0,0 -0.052,-2.15294 -0.053,-2.15851 0,0 2.8803,-1.18024 2.8894,-1.18392 z m -1.3761,4.15377 c 7.3419,2.77493 14.6356,5.70005 21.8787,8.76647 6.7124,2.93832 13.378,5.99804 19.9951,9.17191 -7.1815,-2.60151 -14.3905,-5.06901 -21.623,-7.39518 -7.6636,-2.56077 -15.3571,-4.96275 -23.076,-7.197 0,0 -0.048,-2.15326 -0.048,-2.15685 0,0 2.8661,-1.18666 2.8729,-1.18935 z m -1.3762,4.15367 c 0,0 5.4629,2.0673 10.8925,4.24548 5.7495,2.30651 10.5043,4.32775 10.8253,4.46513 6.6638,2.92042 13.282,5.96175 19.8531,9.11674 -7.1335,-2.58185 -14.2932,-5.03023 -21.475,-7.3378 -7.6096,-2.54102 -15.2476,-4.92386 -22.9095,-7.13957 0,0 -0.043,-2.1523 -0.043,-2.15511 0,0 2.8506,-1.19262 2.8562,-1.19487 z m -1.3761,4.15376 c 0,0 5.4221,2.054 10.8119,4.21837 7.1844,2.88505 8.9503,3.70717 10.7449,4.43629 0,0 4.9602,2.17674 9.8884,4.44268 5.1035,2.34656 9.6481,4.53129 9.8227,4.61879 0,0 -5.3144,-1.92202 -10.6451,-3.74211 -5.6395,-1.92552 -10.3713,-3.44033 -10.682,-3.53812 -7.5556,-2.52124 -15.1381,-4.8849 -22.743,-7.08205 0,0 -0.037,-2.15209 -0.037,-2.15355 0.9443,-0.40248 1.8908,-0.80258 2.8396,-1.2003 z m -1.3762,4.15377 c 7.1766,2.72069 14.3093,5.58985 21.3959,8.5986 6.5666,2.88464 13.0902,5.88918 19.5691,9.0064 -7.0376,-2.54249 -14.0987,-4.95259 -21.1791,-7.22295 -7.5017,-2.50142 -15.0287,-4.84588 -22.5765,-7.02443 -0.01,-0.71718 -0.021,-1.43448 -0.032,-2.15189 0.9388,-0.40429 1.8798,-0.8062 2.823,-1.20573 z"
               id="path4259-4"
               inkscape:original-d="m 1241.502,298.09724 c 0,0 24.5175,0.9659 24.6133,0.9699 0,0 22.8268,1.1652 22.916,1.1701 0,0 -23.7665,1.0611 -23.8593,1.0651 l -25.3868,0.8589 -0.7539,-2.0352 c 0,0 2.4327,-1.9976 2.4707,-2.0288 z m 0,4.3767 c 0,0 24.5212,0.9668 24.6133,0.97 0,0 22.8303,1.166 22.916,1.1701 0,0 -23.77,1.0611 -23.8593,1.0651 l -25.3868,0.8589 c 0,0 -0.7427,-2.0052 -0.7539,-2.0352 0,0 2.4342,-1.9989 2.4707,-2.0289 z m 0,4.3768 c 0,0 24.5249,0.9668 24.6133,0.97 0,0 22.8337,1.1659 22.916,1.17 0,0 -23.7736,1.0612 -23.8593,1.0653 l -25.3868,0.8588 c 0,0 -0.7432,-2.0063 -0.7539,-2.0352 0,0 2.4356,-2.0001 2.4707,-2.0289 z m 0,4.3768 c 0,0 24.5286,0.9667 24.6133,0.97 0,0 22.8371,1.1659 22.916,1.17 0,0 -23.7772,1.0611 -23.8593,1.0652 l -25.3868,0.8589 c 0,0 -0.7436,-2.0075 -0.7539,-2.0352 0,0 2.4371,-1.9996 2.4707,-2.0272 z m 0,4.3768 c 0,0 24.5323,0.9667 24.6133,0.97 0,0 22.8405,1.1659 22.916,1.1699 0,1e-4 -23.7807,1.062 -23.8593,1.0653 l -25.3868,0.8588 c 0,0 -0.7439,-2.0087 -0.7539,-2.0352 0,0 2.4385,-2.0009 2.4707,-2.0273 z m 0,4.3768 c 0,0 24.5359,0.9667 24.6133,0.97 0,0 22.844,1.1659 22.916,1.1699 0,0 -23.7843,1.062 -23.8593,1.0653 l -25.3868,0.8588 c 0,0 -0.7449,-2.0115 -0.7539,-2.0368 z m 0,4.3752 c 0,0 24.5396,0.9682 24.6133,0.9715 0,0 22.8474,1.1668 22.916,1.17 0,0 -23.7879,1.062 -23.8593,1.0652 l -25.3868,0.8573 c 0,0 -0.7449,-2.0111 -0.7539,-2.0352 l 2.4707,-2.0272 z m 0,4.3768 c 0,0 24.5433,0.9691 24.6133,0.9715 0,0 22.8508,1.1652 22.916,1.1684 0,0 -23.7915,1.0636 -23.8593,1.0668 l -25.3868,0.8573 c 0,0 -0.7459,-2.0123 -0.7539,-2.0352 0,0 2.4429,-2.0045 2.4707,-2.0273 z m 0,4.3767 c 0,0 24.547,0.9676 24.6133,0.97 0,0 22.8543,1.1652 22.916,1.1684 0,0 -23.795,1.0619 -23.8593,1.0652 l -25.3868,0.8572 c 0,0 -0.7459,-2.0135 -0.7539,-2.0352 0,0 2.4444,-2.0072 2.4707,-2.0289 z m 0,4.3768 c 0,0 24.5507,0.9676 24.6133,0.97 0,0 22.8577,1.1667 22.916,1.17 0,0 -23.7986,1.0628 -23.8593,1.0652 l -25.3868,0.8588 c 0,0 -0.7459,-2.0147 -0.7539,-2.0352 0,0 2.4458,-2.0084 2.4707,-2.0288 z m 0,4.3768 c 0,0 24.5544,0.9675 24.6133,0.9699 0,0 22.8611,1.1676 22.916,1.1701 0,0 -23.8022,1.0627 -23.8593,1.0651 l -25.3868,0.8589 c 0,0 -0.7469,-2.0159 -0.7539,-2.0351 0,0 2.4473,-2.0097 2.4707,-2.0289 z m 0,4.3767 c 0,0 24.558,0.9676 24.6133,0.97 0,0 22.8646,1.1676 22.916,1.1701 0,0 -23.8057,1.0627 -23.8593,1.0652 l -25.3868,0.8588 c 0,0 -0.7469,-2.0172 -0.7539,-2.0352 0,0 2.4488,-2.0108 2.4707,-2.0289 z m 0,4.3768 c 0,0 24.5617,0.9684 24.6133,0.97 0,0 22.868,1.1676 22.916,1.17 0,0 -23.8093,1.0628 -23.8593,1.0653 l -25.3868,0.8588 c 0,0 -0.7479,-2.0184 -0.7539,-2.0352 z m 0,4.3768 c 0,0 24.5654,0.9683 24.6133,0.97 0,0 22.8714,1.1676 22.916,1.17 0,0 -23.8129,1.0628 -23.8593,1.0652 l -25.3868,0.8589 c 0,0 -0.7479,-2.0195 -0.7539,-2.0352 z m 0,4.3768 c 0,0 24.5691,0.9683 24.6133,0.97 0,0 22.8748,1.1676 22.916,1.17 0,0 -23.8165,1.0636 -23.8593,1.0652 l -25.3868,0.8588 c 0,0 -0.7489,-2.0207 -0.7539,-2.0352 0,0 2.4532,-2.0144 2.4707,-2.0288 z m 0,4.3768 c 0,0 24.5728,0.9684 24.6133,0.97 0,0 22.8783,1.1683 22.916,1.1699 0,0 -23.82,1.0637 -23.8593,1.0653 l -25.3868,0.8588 c 0,0 -0.7489,-2.0219 -0.7539,-2.0352 0,0 2.4546,-2.0157 2.4707,-2.0288 z m 0,4.3768 c 0,0 24.5765,0.9683 24.6133,0.9699 0,0 22.8817,1.1684 22.916,1.17 0,0 -23.8236,1.0636 -23.8593,1.0652 l -25.3868,0.859 c 0,0 -0.7499,-2.0232 -0.7539,-2.0353 0,0 2.4561,-2.0152 2.4707,-2.0272 z m 0,4.3768 c 0,0 24.5802,0.9683 24.6133,0.97 0,0 22.8851,1.1684 22.916,1.1699 0,0 -23.8272,1.0636 -23.8593,1.0653 l -25.3868,0.8588 -0.7539,-2.0368 c 0,0 2.4575,-2.0164 2.4707,-2.0272 z m 0,4.3768 c 0,0 24.5838,0.9692 24.6133,0.97 0,0 22.8886,1.1683 22.916,1.1699 0,0 -23.8307,1.0637 -23.8593,1.0653 l -25.3868,0.8588 c 0,0 -0.7499,-2.0271 -0.7539,-2.0368 0,0 2.459,-2.0177 2.4707,-2.0272 z m 0,4.3751 c 0,0 24.5875,0.9708 24.6133,0.9716 0,0 22.892,1.1684 22.916,1.17 0,0 -23.8343,1.0644 -23.8593,1.0652 l -25.3868,0.8573 c 0,0 -0.7509,-2.0268 -0.7539,-2.0352 l 2.4707,-2.0272 z m 0,4.3768 c 0,0 24.5912,0.9708 24.6133,0.9716 0,0 22.8954,1.1676 22.916,1.1684 0,0 -23.8379,1.066 -23.8593,1.0668 l -25.3868,0.8573 c 0,0 -0.7509,-2.0279 -0.7539,-2.0352 0,0 2.4617,-2.0215 2.4707,-2.0289 z m 0,4.3768 24.6133,0.97 c 0,0 22.8988,1.1676 22.916,1.1684 l -23.8593,1.0652 -25.3868,0.8572 c 0,0 -0.7519,-2.0295 -0.7539,-2.0352 0,0 2.4637,-2.0232 2.4707,-2.0289 z m 0,4.3768 24.6133,0.97 22.916,1.1699 -23.8593,1.0653 -25.3868,0.8588 c 0,0 -0.7519,-2.0303 -0.7539,-2.0352 0,0 2.4647,-2.0239 2.4707,-2.0288 z m 0,4.3768 24.6133,0.9699 22.916,1.1701 -23.8593,1.0651 -25.3868,0.8589 c 0,0 -0.7529,-2.0319 -0.7539,-2.0352 0,0 2.4667,-2.0256 2.4707,-2.0288 z m 0,4.3767 c 0,0 24.6063,0.9697 24.6133,0.97 l 22.916,1.1701 -23.8593,1.0651 -25.3868,0.8588 c 0,0 -0.753,-2.0327 -0.7539,-2.0351 0,0 2.4677,-2.0265 2.4707,-2.0289 z m 0,4.3768 c 0,0 24.6093,0.9699 24.6133,0.97 0,0 22.913,1.1698 22.916,1.17 0,0 -23.8553,1.0651 -23.8593,1.0653 l -25.3868,0.8588 c 0,0 -0.7534,-2.0344 -0.7539,-2.0352 z m 0,4.3768 24.6133,0.9699 22.916,1.1701 -23.8593,1.0652 -25.3868,0.8589 -0.7539,-2.0352 z"
               inkscape:connector-curvature="0" />
            <path
               style="fill:#374548;fill-opacity:0.94117647;fill-rule:evenodd;stroke:none;stroke-width:1px;stroke-linecap:butt;stroke-linejoin:miter;stroke-opacity:1"
               d="m 1263.4708,367.52725 c -13.9136,1.4973 -27.5742,3.48035 -40.9213,5.963 2.2594,-6.85526 4.5193,-13.71036 6.7796,-20.5653 11.5156,4.51256 22.8987,9.39147 34.1417,14.6023 z"
               id="path4218-6"
               inkscape:original-d="m 1277.9198,396.30749 -38.5139,19.5564 0.043,-21.6591 z"
               inkscape:connector-curvature="0" />
            <path
               style="opacity:1;fill:#37c8ab;fill-opacity:1;stroke:#374548;stroke-width:0.94265866;stroke-linecap:butt;stroke-miterlimit:4;stroke-dasharray:none;stroke-dashoffset:0;stroke-opacity:1"
               d="m 747.77327,304.42255 c 32.74335,-14.95169 66.532,-28.17607 101.24372,-39.15085 l 35.02458,110.62177 c -29.76036,9.44433 -59.18748,21.00025 -88.15915,34.14544 3.68076,-22.91084 8.19729,-45.92727 13.68584,-68.98114 -19.90572,-12.85855 -40.55482,-25.07008 -61.79499,-36.63522 z"
               id="rect4213"
               inkscape:original-d="m 767.79639,300.077 99.05734,0 0,116.05734 -99.05734,0 40,-58.02867 z"
               inkscape:connector-curvature="0" />
            <path
               style="opacity:1;fill:#374548;fill-opacity:0.94117647;stroke:none;stroke-width:2;stroke-linecap:butt;stroke-miterlimit:4;stroke-dasharray:none;stroke-dashoffset:0;stroke-opacity:1"
               d="m 845.59909,264.26032 c 0,0 -6.37715,2.29522 -12.71429,4.69322 -6.72421,2.54447 -12.25412,4.74516 -12.6856,4.91777 0,0 -5.81972,2.38158 -11.60287,4.8471 -6.11869,2.60857 -11.20054,4.86641 -11.57662,5.03468 0,0 6.16706,-2.11372 12.38211,-4.1414 6.71922,-2.19217 11.96812,-3.80903 12.52397,-3.98159 8.85149,-2.83575 17.75655,-5.52991 26.71225,-8.0739 0.0578,-0.73002 0.11633,-1.4601 0.17557,-2.19027 0,0 -3.16349,-1.08817 -3.21452,-1.10561 z m 1.3359,4.16706 c 0,0 -6.34354,2.28495 -12.6477,4.67224 -6.89027,2.60923 -11.98934,4.64769 -12.61798,4.89463 0,0 -5.79035,2.3716 -11.54463,4.82671 -6.28507,2.68158 -10.94776,4.76166 -11.51735,5.01219 0,0 6.13847,-2.10274 12.32334,-4.11943 6.63704,-2.16412 11.95858,-3.80416 12.46023,-3.95895 8.80666,-2.82027 17.66542,-5.49931 26.57337,-8.02851 0,0 0.16867,-2.15631 0.17132,-2.18894 0,0 -3.15171,-1.09308 -3.2006,-1.10994 z m 1.33593,4.16713 c 0,0 -6.31,2.27448 -12.58121,4.65093 -6.79673,2.5756 -11.98425,4.64837 -12.5503,4.87175 0,0 -5.76101,2.36141 -11.48645,4.80599 -6.18382,2.64029 -10.96267,4.77092 -11.45804,4.98995 0,0 6.1099,-2.09176 12.26462,-4.09744 6.55729,-2.13686 11.94663,-3.79845 12.39648,-3.93625 8.76183,-2.80477 17.57431,-5.46864 26.43452,-7.98303 0,0 0.16465,-2.15627 0.16705,-2.18763 0,0 -3.13979,-1.09803 -3.18667,-1.11427 z m 1.33593,4.16714 c 0,0 -6.27645,2.26397 -12.51471,4.62957 -6.70968,2.54437 -11.97268,4.64658 -12.48265,4.84882 0,0 -5.73166,2.35125 -11.42824,4.78534 -6.0918,2.60297 -10.9683,4.77636 -11.39871,4.96781 0,0 6.08131,-2.08081 12.20585,-4.07551 6.48553,-2.11228 11.92664,-3.79019 12.33272,-3.91364 8.71702,-2.78925 17.48322,-5.43794 26.29569,-7.93748 0,0 0.16049,-2.15626 0.16279,-2.18631 l -6e-4,-0.002 c 0,0 -3.12747,-1.10133 -3.17226,-1.11705 z m 1.3359,4.16707 c 0,0 -6.24288,2.2535 -12.44817,4.60828 -6.62849,2.51538 -11.95521,4.64266 -12.41499,4.82599 0,0 -5.70231,2.34103 -11.37004,4.7646 -6.00782,2.56898 -10.96591,4.77832 -11.33941,4.94558 -0.002,-0.006 6.05313,-2.06969 12.14717,-4.05318 6.68023,-2.17427 11.64024,-3.69505 12.26891,-3.89129 8.67219,-2.77377 17.3921,-5.40732 26.15681,-7.89207 0,0 0.15624,-2.15622 0.15854,-2.18498 l -6e-4,-0.002 c 0,0 -3.11556,-1.10637 -3.15836,-1.12145 z m 1.33592,4.16712 c 0,0 -6.20927,2.24302 -12.38159,4.58696 -6.55316,2.48857 -11.93184,4.63649 -12.34738,4.80313 0,0 -5.67297,2.33086 -11.31186,4.74391 -5.93606,2.54022 -10.95131,4.77512 -11.28009,4.92338 0,0 6.02417,-2.05864 12.08839,-4.03123 6.57004,-2.13712 11.6587,-3.69923 12.20519,-3.86862 8.62737,-2.75827 17.30099,-5.37666 26.01796,-7.8466 0,0 0.15221,-2.15797 0.15379,-2.18521 -1.04649,-0.37729 -2.09463,-0.75252 -3.14441,-1.12572 z m 1.33544,4.1656 c 0,0 -6.17559,2.23289 -12.31482,4.56636 -6.47972,2.46289 -11.90625,4.6303 -12.27952,4.78099 0,0 -5.64351,2.32088 -11.25349,4.72353 -6.13479,2.62742 -10.66609,4.6562 -11.2209,4.90096 0,0 5.99554,-2.04767 12.02957,-4.00929 6.4726,-2.10418 11.66436,-3.6993 12.14147,-3.84603 8.58237,-2.74325 17.20956,-5.34697 25.87864,-7.80258 0,0 0.14812,-2.15627 0.15003,-2.18235 -1.04184,-0.37873 -2.08534,-0.75541 -3.13049,-1.13005 l -6.1e-4,-0.002 z m 1.33592,4.16713 c 0,0 -6.14192,2.22259 -12.24814,4.54532 -6.70604,2.55089 -11.5812,4.50951 -12.21201,4.75784 0,0 -5.61427,2.31029 -11.19553,4.70205 -6.00895,2.57504 -10.70598,4.67549 -11.16194,4.87804 0,0 5.96707,-2.03632 11.97107,-3.98655 6.38405,-2.07369 11.66157,-3.69574 12.07805,-3.82264 8.53755,-2.72775 17.11845,-5.31632 25.73979,-7.75711 0,0 0.14459,-2.1564 0.14577,-2.18103 0,0 -3.07984,-1.12114 -3.11658,-1.13444 l -6.2e-4,-0.002 z m 1.33591,4.16706 c 0,0 -6.10844,2.21173 -12.18181,4.52325 -6.58094,2.5047 -11.60801,4.52163 -12.14469,4.73426 l 6.7e-4,0.002 c 0,0 -5.5849,2.30011 -11.13729,4.68135 -5.90576,2.5328 -10.72277,4.68577 -11.10265,4.85586 0,0 5.93827,-2.02569 11.91192,-3.96531 6.30765,-2.04805 11.64576,-3.68957 12.01414,-3.80079 l 6.7e-4,0.002 c 8.49271,-2.71227 17.02731,-5.2857 25.60089,-7.71169 0,0 0.14,-2.15624 0.14151,-2.17972 0,0 -3.06841,-1.12755 -3.10313,-1.14024 z m 1.33592,4.16714 c 0,0 -6.07482,2.20122 -12.1152,4.5019 -6.48253,2.46908 -11.60773,4.52427 -12.07712,4.7114 0,0 -5.55538,2.29028 -11.07877,4.66137 -5.82064,2.49869 -10.72108,4.68898 -11.04315,4.83442 0,0 5.90971,-2.0145 11.85322,-3.94299 6.57584,-2.13367 11.28587,-3.57079 11.95038,-3.77843 8.44808,-2.69627 16.93659,-5.25403 25.4626,-7.6647 0,0 0.13541,-2.15607 0.13725,-2.17839 0,0 -3.05638,-1.13254 -3.08921,-1.14458 z m 1.33593,4.16714 c 0,0 -6.0412,2.1907 -12.0486,4.48051 -6.38558,2.43395 -11.606,4.52635 -12.00957,4.68852 0,0 -5.5259,2.28028 -11.02036,4.64096 -6.19488,2.66161 -10.26031,4.49432 -10.98401,4.81202 0,0 5.88105,-2.00352 11.79435,-3.92104 6.4282,-2.08448 11.34168,-3.5871 11.8867,-3.75585 8.40328,-2.68074 16.84551,-5.22332 25.32378,-7.61914 0,0 0.13184,-2.15628 0.133,-2.17707 0,0 -3.04446,-1.1375 -3.07529,-1.14891 z m 1.3359,4.16705 c 0,0 -6.00753,2.1802 -11.98192,4.45919 -6.30248,2.40413 -11.59033,4.52323 -11.94205,4.66573 0,0 -5.4965,2.27008 -10.96208,4.62024 -5.97522,2.5693 -10.39358,4.55467 -10.92477,4.78986 0,0 5.85237,-1.99252 11.73545,-3.89902 6.30936,-2.04465 11.36869,-3.59399 11.82309,-3.73326 8.35845,-2.66527 16.75439,-5.19271 25.1849,-7.57375 0,0 0.12725,-2.1561 0.12874,-2.17575 0,0 -3.03249,-1.14238 -3.06136,-1.15324 z m 1.33593,4.16714 c 0,0 -5.97382,2.16988 -11.91518,4.43811 -6.73549,2.5714 -11.05853,4.32316 -11.87461,4.64261 0,0 -5.46708,2.25985 -10.90379,4.59947 -5.82568,2.507 -10.45668,4.5849 -10.86558,4.76766 0,0 5.82371,-1.98149 11.67659,-3.87696 6.20661,-2.01004 11.37964,-3.5956 11.75948,-3.71062 8.31362,-2.64977 16.66327,-5.16205 25.04605,-7.52827 0,0 0.12365,-2.1563 0.12448,-2.17443 -1.01407,-0.38788 -2.02989,-0.77374 -3.04744,-1.15757 z m 1.33593,4.16714 c 0,0 -5.94017,2.15935 -11.84853,4.41671 -6.5379,2.49787 -11.15742,4.36362 -11.80712,4.61973 0,0 -5.43763,2.24965 -10.84544,4.57876 -5.71211,2.46018 -10.48378,4.59981 -10.80638,4.74557 0,0 5.79503,-1.9705 11.61768,-3.85499 6.12018,-1.98078 11.37423,-3.59197 11.69585,-3.68807 8.26881,-2.63423 16.57219,-5.13133 24.90723,-7.4827 0,0 0.11908,-2.15605 0.12022,-2.17311 -1.00941,-0.38932 -2.02059,-0.77662 -3.03351,-1.1619 z m 1.3359,4.16706 c 0,0 -5.90649,2.14885 -11.78184,4.39537 -6.36373,2.43327 -11.23282,4.3953 -11.7396,4.59695 0,0 -5.40819,2.23943 -10.7871,4.55802 -5.62057,2.42276 -10.48885,4.60523 -10.74721,4.72343 0,0 5.76642,-1.95931 11.55888,-3.83269 6.58308,-2.12907 10.81955,-3.41052 11.63215,-3.66575 8.22397,-2.61876 16.48106,-5.10073 24.76834,-7.4373 0,0 0.11547,-2.15628 0.11597,-2.1718 0,0 -2.99645,-1.15735 -3.01959,-1.16623 z m 1.33592,4.16713 c 0,0 -5.8728,2.13833 -11.71514,4.374 -6.2321,2.38482 -11.26571,4.41074 -11.67212,4.57413 0,0 -5.37869,2.2294 -10.72868,4.53753 -6.21112,2.67965 -9.81181,4.31647 -10.68814,4.70095 0,0 5.73771,-1.94826 11.49994,-3.81061 6.31715,-2.04168 10.99363,-3.46489 11.56861,-3.64313 8.17915,-2.60326 16.38996,-5.07007 24.62949,-7.39183 0,0 0.11087,-2.15608 0.11171,-2.17048 0,0 -2.98433,-1.16235 -3.00567,-1.17056 z m 1.33593,4.16714 c 0,0 -5.83912,2.12779 -11.64845,4.35258 -6.12173,2.34444 -11.27734,4.41806 -11.60466,4.55128 0,0 -5.34922,2.21919 -10.67029,4.51681 -5.83149,2.51801 -10.10497,4.44617 -10.62899,4.67886 0,0 5.709,-1.93727 11.441,-3.78862 6.14274,-1.98401 11.07615,-3.48967 11.50502,-3.62059 8.13434,-2.58773 16.29886,-5.03935 24.49066,-7.34628 0,0 0.10724,-2.15629 0.10745,-2.16915 l -6e-4,-0.002 c 0,0 -2.9718,-1.16572 -2.99125,-1.17334 z m 1.33591,4.16706 c 0,0 -5.80542,2.11728 -11.58172,4.33124 -6.02977,2.31111 -11.27052,4.41843 -11.5372,4.52849 0,0 -5.31974,2.20896 -10.61191,4.49604 -5.68796,2.45813 -10.16201,4.47402 -10.56987,4.65669 0,0 5.68029,-1.92624 11.38206,-3.76655 6.01692,-1.94203 11.11013,-3.49864 11.44147,-3.59799 8.08951,-2.57225 16.20774,-5.00874 24.35179,-7.30086 0.0336,-0.72303 0.0678,-1.44613 0.10273,-2.16932 0,0 -2.95967,-1.17081 -2.97735,-1.17774 z m 1.33592,4.16714 c 0,0 -5.77162,2.10693 -11.51484,4.31012 -7.35187,2.82029 -9.84954,3.87641 -11.46989,4.50541 0,0 -5.29029,2.19872 -10.55357,4.47526 -5.49342,2.3761 -10.27008,4.52404 -10.5107,4.63459 0,0 5.65155,-1.91521 11.32307,-3.7445 5.91344,-1.90732 11.12169,-3.50038 11.37795,-3.57543 8.04469,-2.55675 16.11664,-4.97807 24.21294,-7.25538 0,0 0.0975,-2.15738 0.0984,-2.16808 0,0 -2.94759,-1.17573 -2.96341,-1.18199 z m 1.33543,4.16559 c 0,0 -5.73779,2.09676 -11.44787,4.28946 -6.48571,2.49055 -10.61656,4.17424 -11.40221,4.48335 0,0 -5.2608,2.1885 -10.49514,4.45453 -5.40225,2.33871 -10.27476,4.52945 -10.45159,4.61249 0,0 5.62288,-1.904 11.26419,-3.7222 7.98576,-2.57381 8.95752,-2.80077 11.3143,-3.55317 7.99969,-2.54174 16.0252,-4.9484 24.07362,-7.21139 0,0 0.0944,-2.15604 0.0947,-2.1652 -0.98132,-0.39744 -1.96449,-0.79289 -2.94948,-1.18633 l -6.1e-4,-0.002 z m 1.33593,4.16714 c 0,0 -5.70406,2.08623 -11.3811,4.26806 -6.14327,2.36102 -10.86021,4.27075 -11.33481,4.46055 0,0 -5.23136,2.17807 -10.43689,4.43328 -7.08909,3.07122 -8.50178,3.76398 -10.39291,4.58935 0,0 5.5943,-1.8926 11.20551,-3.6994 6.35994,-2.04789 10.49187,-3.2926 11.25106,-3.52985 7.95487,-2.52624 15.9341,-4.91774 23.93477,-7.16591 0,0 0.0898,-2.15575 0.0904,-2.16388 0,0 -2.92354,-1.18724 -2.93605,-1.1922 z m 1.3359,4.16705 c -7.56694,2.76884 -15.09467,5.6659 -22.58225,8.68296 l 6.7e-4,0.002 c 0,0 -5.20185,2.16783 -10.37845,4.4125 -5.68024,2.46305 -9.8241,4.34014 -10.33382,4.56725 7.42501,-2.51025 14.87039,-4.90799 22.33351,-7.18617 l 6.7e-4,0.002 c 7.91003,-2.51076 15.84295,-4.88712 23.79587,-7.1205 0,0 0.086,-2.15635 0.0862,-2.16256 0,0 -2.91202,-1.19249 -2.92213,-1.19654 z m 1.33593,4.16714 c -7.52084,2.75442 -15.00385,5.63676 -22.44808,8.63877 -6.90102,2.87878 -13.76595,5.86045 -20.59424,8.93832 7.38547,-2.49505 14.79003,-4.8779 22.21104,-7.14148 7.8654,-2.49476 15.75224,-4.85546 23.65758,-7.0735 0,0 0.0815,-2.15575 0.0819,-2.16125 0,0 -2.8993,-1.19726 -2.9082,-1.20086 z m 1.33593,4.16714 c -7.47475,2.73998 -14.91305,5.60755 -22.31393,8.59448 -6.86065,2.8648 -13.6864,5.8322 -20.4767,8.89553 7.34592,-2.47991 14.70963,-4.84792 22.0885,-7.09696 7.8206,-2.47922 15.66115,-4.82473 23.51876,-7.02793 0,0 0.0777,-2.1564 0.0776,-2.15993 0,0 -2.88775,-1.20253 -2.89428,-1.20519 z m 1.3359,4.16706 c 0,0 -5.56919,2.04381 -11.11417,4.18189 -5.8006,2.23663 -10.80805,4.26206 -11.06556,4.36847 -6.82028,2.85078 -13.60686,5.80389 -20.35918,8.85264 7.30637,-2.46473 14.62925,-4.81787 21.966,-7.05234 7.77576,-2.46375 15.57002,-4.79413 23.37987,-6.98254 0,0 0.0733,-2.15582 0.0734,-2.15861 0,0 -2.87499,-1.20732 -2.88035,-1.20951 z m 1.33593,4.16713 c 0,0 -5.53523,2.03325 -11.04708,4.16045 -5.87976,2.26919 -10.62986,4.19645 -10.99847,4.34573 0,0 -5.08368,2.12741 -10.14445,4.33037 -5.36073,2.33353 -9.79716,4.34284 -10.09725,4.4793 0,0 5.45026,-1.83756 10.90997,-3.5895 6.07168,-1.9483 10.32002,-3.22819 10.93355,-3.41815 7.73094,-2.44825 15.47892,-4.76347 23.24102,-6.93706 0,0 0.0689,-2.15598 0.0691,-2.15729 -0.95356,-0.4066 -1.90904,-0.81122 -2.86643,-1.21385 z m 1.33592,4.16714 c -7.33645,2.69675 -14.64057,5.52013 -21.9114,8.46189 -6.73956,2.82275 -13.44779,5.74727 -20.12415,8.76688 7.22729,-2.43438 14.4685,-4.75778 21.72099,-6.96311 7.68612,-2.43273 15.38783,-4.73276 23.10219,-6.89151 0.0209,-0.71858 0.0426,-1.43723 0.0649,-2.15597 -0.9489,-0.40804 -1.89974,-0.8141 -2.85251,-1.21818 z"
               id="path4259"
               inkscape:original-d="m 864.18136,298.07666 c 0,0 -24.51748,0.96586 -24.61328,0.96992 0,0 -22.82682,1.16516 -22.91602,1.17004 0,0 23.76658,1.06112 23.85938,1.06518 l 25.38672,0.8589 0.7539,-2.03519 c 0,0 -2.4327,-1.99764 -2.4707,-2.02885 z m 0,4.37672 c 0,0 -24.52118,0.96676 -24.61328,0.97001 0,0 -22.83032,1.16597 -22.91602,1.17004 0,0 23.77008,1.06112 23.85938,1.06518 l 25.38672,0.85881 c 0,0 0.7427,-2.00511 0.7539,-2.03519 0,0 -2.4342,-1.99885 -2.4707,-2.02885 z m 0,4.37681 c 0,0 -24.52488,0.96676 -24.61328,0.97001 0,0 -22.83372,1.16589 -22.91602,1.16995 0,0 23.77368,1.0612 23.85938,1.06527 l 25.38672,0.85881 c 0,0 0.7432,-2.00625 0.7539,-2.03519 0,0 -2.4356,-2.00007 -2.4707,-2.02885 z m 0,4.37681 c 0,0 -24.52858,0.96667 -24.61328,0.96992 0,0 -22.83712,1.16598 -22.91602,1.17004 0,0 23.77728,1.06112 23.85938,1.06519 l 25.38672,0.85889 c 0,0 0.7436,-2.00747 0.7539,-2.03519 l 0,-0.002 c 0,0 -2.4371,-1.99958 -2.4707,-2.02722 z m 0,4.37673 c 0,0 -24.53228,0.96675 -24.61328,0.97 0,0 -22.84052,1.16589 -22.91602,1.16996 0,8e-5 23.78078,1.06201 23.85938,1.06526 l 25.38672,0.85882 c 0,0 0.7439,-2.0087 0.7539,-2.03519 l 0,-0.002 c 0,0 -2.4385,-2.00089 -2.4707,-2.0273 z m 0,4.3768 c 0,0 -24.53588,0.96676 -24.61328,0.97001 0,0 -22.84402,1.16589 -22.91602,1.16995 0,0 23.78438,1.06202 23.85938,1.06527 l 25.38672,0.85881 c 0,0 0.7449,-2.01153 0.7539,-2.03681 z m 0,4.37519 c 0,0 -24.53958,0.96829 -24.61328,0.97155 0,0 -22.84742,1.16678 -22.91602,1.17003 0,0 23.78798,1.06194 23.85938,1.06519 l 25.38672,0.85727 c 0,0 0.7449,-2.01113 0.7539,-2.03519 l -2.4707,-2.02723 0,-0.002 z m 0,4.3768 c 0,0 -24.54328,0.96912 -24.61328,0.97155 0,0 -22.85082,1.16516 -22.91602,1.16841 0,0 23.79158,1.06356 23.85938,1.06682 l 25.38672,0.85726 c 0,0 0.7459,-2.01226 0.7539,-2.03519 0,0 -2.4429,-2.00446 -2.4707,-2.0273 l 0,-0.002 z m 0,4.37673 c 0,0 -24.54698,0.96757 -24.61328,0.97001 l 0,0.002 c 0,0 -22.85432,1.16516 -22.91602,1.16841 0,0 23.79508,1.06194 23.85938,1.06519 l 0,0.002 25.38672,0.85719 c 0,0 0.7459,-2.01349 0.7539,-2.03519 0,0 -2.4444,-2.00723 -2.4707,-2.02885 z m 0,4.37681 c 0,0 -24.55068,0.96757 -24.61328,0.97 0,0 -22.85772,1.16671 -22.91602,1.16996 0,0 23.79868,1.06283 23.85938,1.06527 l 25.38672,0.85881 c 0,0 0.7459,-2.01471 0.7539,-2.03519 0,0 -2.4458,-2.00845 -2.4707,-2.02885 z m 0,4.37681 c 0,0 -24.55438,0.96748 -24.61328,0.96992 0,0 -22.86112,1.1676 -22.91602,1.17004 0,0 23.80228,1.06274 23.85938,1.06518 l 25.38672,0.8589 c 0,0 0.7469,-2.01593 0.7539,-2.03519 0,0 -2.4473,-2.00967 -2.4707,-2.02885 z m 0,4.37672 c 0,0 -24.55798,0.96757 -24.61328,0.97001 0,0 -22.86462,1.1676 -22.91602,1.17004 0,0 23.80578,1.06274 23.85938,1.06518 l 25.38672,0.85881 c 0,0 0.7469,-2.01714 0.7539,-2.03519 0,0 -2.4488,-2.0108 -2.4707,-2.02885 z m 0,4.37681 c 0,0 -24.56168,0.96838 -24.61328,0.97001 0,0 -22.86802,1.16751 -22.91602,1.16995 0,0 23.80938,1.06283 23.85938,1.06527 l 25.38672,0.85881 c 0,0 0.7479,-2.01836 0.7539,-2.03519 z m 0,4.37681 c 0,0 -24.56538,0.9683 -24.61328,0.96992 0,0 -22.87142,1.1676 -22.91602,1.17004 0,0 23.81298,1.06275 23.85938,1.06518 l 25.38672,0.8589 c 0,0 0.7479,-2.0195 0.7539,-2.03519 z m 0,4.37673 c 0,0 -24.56908,0.96837 -24.61328,0.97 0,0 -22.87482,1.1676 -22.91602,1.17004 0,0 23.81658,1.06356 23.85938,1.06518 l 25.38672,0.85882 c 0,0 0.7489,-2.02073 0.7539,-2.03519 0,0 -2.4532,-2.01447 -2.4707,-2.02885 z m 0,4.3768 c 0,0 -24.57278,0.96838 -24.61328,0.97001 0,0 -22.87832,1.16833 -22.91602,1.16995 0,0 23.82008,1.06364 23.85938,1.06527 l 25.38672,0.85881 c 0,0 0.7489,-2.02194 0.7539,-2.03519 0,0 -2.4546,-2.01568 -2.4707,-2.02885 z m 0,4.37681 c 0,0 -24.57648,0.9683 -24.61328,0.96993 0,0 -22.88172,1.16841 -22.91602,1.17003 0,0 23.82368,1.06356 23.85938,1.06519 l 25.38672,0.85889 c 0,0 0.7499,-2.02316 0.7539,-2.03519 l 0,-0.002 c 0,0 -2.4561,-2.0152 -2.4707,-2.02723 z m 0,4.37673 c 0,0 -24.58018,0.96838 -24.61328,0.97 0,0 -22.88512,1.16841 -22.91602,1.16996 0,0 23.82728,1.06364 23.85938,1.06526 l 25.38672,0.85882 0.7539,-2.03674 c 0,0 -2.4575,-2.01649 -2.4707,-2.0273 z m 0,4.37681 c 0,0 -24.58378,0.96919 -24.61328,0.97 0,0 -22.88862,1.16833 -22.91602,1.16996 0,0 23.83078,1.06364 23.85938,1.06526 l 25.38672,0.85882 c 0,0 0.7499,-2.02715 0.7539,-2.03682 0,0 -2.459,-2.01763 -2.4707,-2.02722 z m 0,4.37518 c 0,0 -24.58748,0.97073 -24.61328,0.97155 0,0 -22.89202,1.16841 -22.91602,1.17003 0,0 23.83438,1.06438 23.85938,1.06519 l 25.38672,0.85727 c 0,0 0.7509,-2.02674 0.7539,-2.03519 l -2.4707,-2.02723 0,-0.002 z m 0,4.37681 c 0,0 -24.59118,0.97073 -24.61328,0.97155 0,0 -22.89542,1.16759 -22.91602,1.16841 0,0 23.83798,1.06599 23.85938,1.06681 l 25.38672,0.85727 c 0,0 0.7509,-2.02788 0.7539,-2.03519 0,0 -2.4617,-2.02154 -2.4707,-2.02885 z m 0,4.37672 -24.61328,0.97001 0,0.002 c 0,0 -22.89882,1.1676 -22.91602,1.16841 l 23.85938,1.06519 0,0.002 25.38672,0.85719 c 0,0 0.7519,-2.0295 0.7539,-2.03519 0,0 -2.4637,-2.02316 -2.4707,-2.02885 z m 0,4.37681 -24.61328,0.97001 -22.91602,1.16995 23.85938,1.06527 25.38672,0.85881 c 0,0 0.7519,-2.03031 0.7539,-2.03519 0,0 -2.4647,-2.02397 -2.4707,-2.02885 z m 0,4.37681 -24.61328,0.96992 -22.91602,1.17004 23.85938,1.06518 25.38672,0.8589 c 0,0 0.7529,-2.03194 0.7539,-2.03519 0,0 -2.4667,-2.0256 -2.4707,-2.02885 z m 0,4.37673 c 0,0 -24.60628,0.96967 -24.61328,0.97 l -22.91602,1.17004 23.85938,1.06518 25.38672,0.85881 c 0,0 0.75301,-2.03275 0.7539,-2.03519 0,0 -2.4677,-2.02641 -2.4707,-2.02884 z m 0,4.3768 c 0,0 -24.60928,0.96985 -24.61328,0.97001 0,0 -22.91302,1.16979 -22.91602,1.16995 0,0 23.85538,1.06511 23.85938,1.06527 l 25.38672,0.85881 c 0,0 0.75345,-2.03437 0.7539,-2.03519 z m 0,4.37681 -24.61328,0.96992 -22.91602,1.17004 23.85938,1.06519 25.38672,0.85889 0.7539,-2.03519 z"
               inkscape:connector-curvature="0" />
            <path
               inkscape:path-effect="#path-effect3435"
               style="opacity:1;fill:#37c8ab;fill-opacity:1;stroke:#374548;stroke-width:2;stroke-linecap:butt;stroke-miterlimit:4;stroke-dasharray:none;stroke-dashoffset:0;stroke-opacity:1"
               d="m 802.13882,260.8187 c 34.26579,-12.74823 69.57282,-23.48168 105.8037,-31.69866 l 3e-5,-10e-6 c 52.55286,-11.89119 106.83395,-17.99581 161.58425,-17.22443 l 10e-5,0 c 52.0161,0.80634 103.7178,7.93273 153.832,20.95083 28.4171,7.4114 56.1617,16.58436 83.1345,27.26571 l -42.4004,106.90687 c -22.8379,-9.06914 -46.0797,-16.77393 -69.6265,-22.86117 -41.4165,-10.74307 -84.0673,-16.64431 -126.6792,-17.2754 -44.8901,-0.71872 -90.16419,4.4525 -134.56329,14.42425 l -2e-5,10e-6 c -30.70067,6.88202 -61.04648,16.14735 -90.92003,27.29433 0,0 -40.16514,-107.78233 -40.16514,-107.78233 z"
               id="rect4211"
               inkscape:original-d="m 828.32507,280.60565 450.00003,0 0,115 -450.00003,0 z"
               inkscape:connector-curvature="0" />
            <path
               style="fill:#374548;fill-opacity:0.94117647;fill-rule:evenodd;stroke:none;stroke-width:1px;stroke-linecap:butt;stroke-linejoin:miter;stroke-opacity:1"
               d="m 842.0275,369.43162 c 14.04063,1.71078 27.86028,3.82058 41.40668,6.34956 -2.19702,-6.87584 -4.39444,-13.75155 -6.59225,-20.62713 -11.70758,4.4586 -23.31316,9.22837 -34.81443,14.27757 z"
               id="path4218"
               inkscape:original-d="m 827.76358,396.28685 38.5139,19.55646 -0.0427,-21.65915 z"
               inkscape:connector-curvature="0" />
            <g
               transform="translate(182.26333,-1257.242)"
               style="font-style:normal;font-variant:normal;font-weight:normal;font-stretch:normal;font-size:93.74998474px;line-height:125%;font-family:'Bebas Neue';-inkscape-font-specification:'Bebas Neue';letter-spacing:0px;word-spacing:0px;fill:#f9f9f9;fill-opacity:0.94117647;stroke:#374548;stroke-width:2;stroke-linecap:butt;stroke-linejoin:miter;stroke-miterlimit:4;stroke-dasharray:none;stroke-opacity:1"
               id="flowRoot5055">
              <path
                 d="m 738.50294,1576.0863 c 2.34087,-0.5533 4.68436,-1.0938 7.03044,-1.6212 1.01789,-0.229 2.0363,-0.4556 3.0552,-0.6798 l -14.11831,-64.0911 c -1.12201,0.2478 -2.24328,0.4982 -3.3638,0.7514 -2.57826,0.5835 -5.15218,1.1804 -7.72171,1.7906 z"
                 id="path4286"
                 inkscape:original-d="m 736.60742,1628.1601 10.3125,0 0,-65.6249 -10.3125,0 0,65.6249 z"
                 inkscape:connector-curvature="0" />
              <path
                 d="m 777.57706,1568.1007 c 3.48571,-0.6 6.97573,-1.1706 10.46953,-1.7112 l -10.03073,-64.8651 c -3.35134,0.5176 -6.6978,1.0602 -10.03902,1.6274 l 6.57744,38.7345 c -0.0643,0.011 -0.12862,0.022 -0.19293,0.033 -5.76554,-12.3036 -11.74094,-24.5412 -17.92097,-36.7077 -4.68733,0.8779 -9.3635,1.804 -14.02753,2.7773 l 13.38564,64.2534 c 3.03609,-0.6318 6.07633,-1.2418 9.12036,-1.8296 l -9.01723,-46.6768 c 0.0661,-0.013 0.13219,-0.025 0.19828,-0.038 7.46255,14.6989 14.62473,29.503 21.47716,44.4034 z"
                 id="path4288"
                 inkscape:original-d="m 776.39989,1628.1601 10.59375,0 0,-65.6249 -9.1875,0 0,39.2812 -0.1875,0 -10.40624,-39.2812 -12.9375,0 0,65.6249 9.28125,0 0,-47.5312 0.1875,0 12.65624,47.5312 z"
                 inkscape:connector-curvature="0" />
              <path
                 d="m 818.80784,1562.4234 c 3.51137,-0.3615 7.02498,-0.6916 10.54028,-0.99 -5.78319,-11.6761 -11.8574,-23.2704 -18.21301,-34.7744 3.98337,-10.2416 8.20602,-20.4472 12.67331,-30.6079 -3.80351,0.3212 -7.60282,0.6755 -11.39744,1.0623 -3.93519,9.9186 -7.65226,19.8711 -11.15578,29.8501 -0.0658,0.01 -0.13169,0.016 -0.19754,0.025 l -3.52402,-28.1885 c -3.78153,0.4716 -7.55773,0.9753 -11.32812,1.5107 l 9.24233,64.9795 c 3.40597,-0.4849 6.81517,-0.9412 10.2271,-1.3683 l -2.50054,-20.0017 c 0.84156,-2.1209 1.69391,-4.2402 2.5571,-6.3578 4.50039,8.2428 8.86029,16.5309 13.07633,24.8613 z"
                 id="path4290"
                 inkscape:original-d="m 817.99998,1628.1601 10.59375,0 -14.34375,-36.375 14.34375,-29.2499 -10.3125,0 -13.31249,28.4062 -0.1875,0 0,-28.4062 -10.3125,0 0,65.6249 10.3125,0 0,-20.1562 3.1875,-6 10.03124,26.1562 z"
                 inkscape:connector-curvature="0" />
              <path
                 d="m 828.19636,1511.4917 c 0.60227,7.5394 3.9795,12.5704 13.50395,19.6311 7.39837,5.4496 9.65902,9.013 9.87202,13.746 0.2108,4.6838 -1.81061,6.4558 -5.1209,6.6358 -3.31046,0.18 -5.51255,-1.3626 -5.81008,-6.0419 l -0.29739,-4.6771 c -3.3488,0.213 -6.69597,0.4541 -10.04112,0.723 l 0.32287,4.0177 c 0.84344,10.4951 6.6149,15.955 16.61914,15.4158 9.99985,-0.5391 15.14705,-6.5852 14.8642,-17.1087 -0.19977,-7.4324 -3.11736,-12.944 -12.58222,-20.0755 -7.45726,-5.5834 -9.92059,-8.8968 -10.2197,-13.7114 -0.29039,-4.6744 1.64154,-6.5884 5.24496,-6.7797 3.60376,-0.1913 5.72922,1.5074 5.93595,6.1861 l 0.11998,2.7154 c 3.51079,-0.155 7.02372,-0.2803 10.53837,-0.3756 l -0.0557,-2.0612 c -0.28281,-10.4575 -6.11769,-16.409 -17.34894,-15.8077 -11.2256,0.6011 -16.37841,7.1392 -15.54535,17.5679 z"
                 id="path4292"
                 inkscape:original-d="m 831.42528,1578.2852 c 0,7.4999 2.71875,12.9374 11.34375,20.5312 6.74999,5.9062 8.81249,9.4687 8.81249,14.25 0,4.6875 -2.0625,6.375 -5.34375,6.375 -3.28124,0 -5.34374,-1.6875 -5.34374,-6.375 l 0,-4.6875 -9.75,0 0,4.0312 c 0,10.5 5.25,16.5 15.37499,16.5 10.125,0 15.375,-6 15.375,-16.5 0,-7.5 -2.71875,-12.9375 -11.34375,-20.5312 -6.74999,-5.9063 -8.81249,-9.4688 -8.81249,-14.25 0,-4.6875 1.875,-6.4687 5.15624,-6.4687 3.28125,0 5.15625,1.7812 5.15625,6.4687 l 0,2.7187 9.75,0 0,-2.0624 c 0,-10.5 -5.15625,-16.5 -15.1875,-16.5 -10.03124,0 -15.18749,6 -15.18749,16.5 z"
                 inkscape:connector-curvature="0" />
              <path
                 d="m 888.90422,1535.0198 -0.18513,9.3731 c -0.0621,3.1454 -1.04586,4.9217 -2.6808,5.7357 -0.80184,0.3989 -1.76217,0.5682 -2.85386,0.557 -3.3118,-0.034 -5.40929,-1.7143 -5.40751,-6.4034 l 0.0135,-35.4332 c 0.002,-4.6843 2.25944,-6.4744 5.87815,-6.4399 1.18607,0.011 2.22536,0.2171 3.08172,0.6543 1.75225,0.8959 2.73074,2.7527 2.66859,5.8994 l -0.13885,7.0297 c 3.49514,0.069 6.98926,0.1698 10.48187,0.301 l 0.23887,-6.37 c 0.35049,-9.3469 -4.02167,-15.365 -13.10245,-16.6455 0,0 0,0 0,0 -1.08557,-0.1522 -2.2361,-0.2351 -3.44982,-0.2459 -11.38562,-0.1014 -17.0474,6.1175 -16.85851,16.5748 l 0.61615,34.1121 c 0.19015,10.5274 5.60508,16.3327 15.60346,16.4315 1.08166,0.011 2.10794,-0.045 3.07959,-0.1664 0,0 0,0 0,0 8.02812,-1.0073 12.48123,-6.5828 12.83292,-15.9617 l 0.32669,-8.7121 c -3.38049,-0.1267 -6.76217,-0.2236 -10.14458,-0.2905 z"
                 id="path4294"
                 inkscape:original-d="m 887.86715,1603.6914 0,9.375 c 0,4.6875 -2.0625,6.375 -5.34375,6.375 -3.28125,0 -5.34375,-1.6875 -5.34375,-6.375 l 0,-35.4375 c 0,-4.6875 2.0625,-6.4687 5.34375,-6.4687 3.28125,0 5.34375,1.7812 5.34375,6.4687 l 0,7.0312 9.75,0 0,-6.3749 c 0,-10.5 -5.25,-16.5 -15.375,-16.5 -10.12499,0 -15.37499,6 -15.37499,16.5 l 0,34.1249 c 0,10.5 5.25,16.5 15.37499,16.5 10.125,0 15.375,-6 15.375,-16.5 l 0,-8.7187 -9.75,0 z"
                 inkscape:connector-curvature="0" />
              <path
                 d="m 933.1047,1496.2656 c -5.58452,-0.5044 -11.17701,-0.9337 -16.77566,-1.2872 -5.27244,21.5838 -10.13481,43.2304 -14.58281,64.9292 3.14232,0.1384 6.28372,0.3038 9.42374,0.496 0.83329,-3.9248 1.67925,-7.8478 2.53786,-11.7691 4.28664,0.2763 8.57033,0.6016 12.85003,0.9754 0.25705,4.006 0.50141,8.0118 0.73309,12.0175 3.44429,0.312 6.88599,0.6561 10.32452,1.0322 -1.09227,-22.1236 -2.59483,-44.2586 -4.51077,-66.394 z m -9.93677,10.8391 c 0.0682,0.01 0.13634,0.01 0.20451,0.015 0.93422,11.1644 1.77117,22.3292 2.51119,33.4932 -3.41374,-0.2895 -6.83002,-0.5486 -10.24832,-0.7771 2.41464,-10.9248 4.92567,-21.8357 7.53262,-32.7316 z"
                 id="path4296"
                 inkscape:original-d="m 926.84079,1562.5352 -15.09375,0 -10.5,65.6249 9.46875,0 1.78125,-11.9062 12.65625,0 1.78125,11.9062 10.40624,0 -10.49999,-65.6249 z m -8.15625,11.625 0.1875,0 4.875,33.1874 -9.9375,0 4.875,-33.1874 z"
                 inkscape:connector-curvature="0" />
              <path
                 d="m 966.73429,1500.2236 c -5.57956,-0.8099 -11.17086,-1.5449 -16.77206,-2.2043 l -7.67885,65.1707 c 3.40458,0.4013 6.80579,0.8339 10.20304,1.2976 l 3.33311,-24.4292 c 1.67636,0.2287 3.35174,0.4647 5.02608,0.7079 10.55287,1.5327 16.77794,-3.0838 18.57487,-13.4657 l 1.45501,-8.4063 c 1.78361,-10.3049 -2.70024,-17.01 -14.1412,-18.6707 z m -1.34753,9.2775 c 3.57061,0.5184 5.26313,2.3084 4.54839,6.9376 l -1.50207,9.7283 c -0.71578,4.6359 -2.81325,5.8194 -6.23995,5.3218 -1.70102,-0.247 -3.40313,-0.4867 -5.10626,-0.7191 l 3.0036,-22.0141 c 1.76656,0.2409 3.53201,0.4894 5.29629,0.7455 z"
                 id="path4298"
                 inkscape:original-d="m 957.23922,1562.5352 -15.18749,0 0,65.6249 10.3125,0 0,-24.6562 4.87499,0 c 10.3125,0 15.375,-5.7188 15.375,-16.2188 l 0,-8.5312 c 0,-10.5 -5.0625,-16.2187 -15.375,-16.2187 z m 0,9.375 c 3.28125,0 5.0625,1.5 5.0625,6.1875 l 0,9.8437 c 0,4.6875 -1.78125,6.1875 -5.0625,6.1875 l -4.87499,0 0,-22.2187 4.87499,0 z"
                 inkscape:connector-curvature="0" />
              <path
                 d="m 998.31012,1515.1886 c 6.38428,1.2802 12.74778,2.6601 19.08758,4.1389 l 2.1293,-9.1303 c -10.1599,-2.3699 -20.38012,-4.4898 -30.64896,-6.3556 l -11.73592,64.5687 c 9.20365,1.6732 18.3675,3.5741 27.47988,5.699 l 2.1293,-9.1303 c -5.866,-1.3679 -11.75307,-2.6445 -17.65836,-3.8289 l 3.77904,-18.8442 c 4.8492,0.9725 9.68622,2.0052 14.50972,3.0976 l 2.0708,-9.1438 c -4.8989,-1.1096 -9.81176,-2.1584 -14.73708,-3.1461 z"
                 id="path4300"
                 inkscape:original-d="m 987.70357,1571.9102 17.81253,0 0,-9.375 -28.12503,0 0,65.6249 28.12503,0 0,-9.375 -17.81253,0 0,-19.2187 14.15623,0 0,-9.375 -14.15623,0 0,-18.2812 z"
                 inkscape:connector-curvature="0" />
            </g>
          </g>
        </g>
      </g>
    </g>
  </g>
</svg>
